<svg preserveAspectRatio="none" width="100%" height="100%" overflow="visible" style="display: block;" viewBox="0 0 77.5003 77.4638" fill="none" xmlns="http://www.w3.org/2000/svg">
<g id="Group">
<path id="Vector" opacity="0.75" d="M68.4923 47.7357C73.4672 31.3173 64.1842 13.9764 47.7581 9.00377C31.332 4.03112 13.983 13.3097 9.008 29.7281C4.03302 46.1465 13.316 63.4874 29.7421 68.4601C46.1682 73.4327 63.5173 64.1541 68.4923 47.7357Z" fill="var(--fill-0, #786B8A)"/>
<path id="Vector_2" d="M16.7792 16.732C15.3396 18.1709 33.6061 38.2727 36.3905 41.0558C39.1748 43.8388 59.1395 62.2432 60.7257 60.6578C72.8631 48.5261 72.8631 28.8637 60.7257 16.732C48.5882 4.60025 28.9166 4.60025 16.7792 16.732Z" fill="var(--fill-0, #F04B47)"/>
<path id="Vector_3" opacity="0.55" d="M31.1148 27.6144C35.8732 22.8582 37.5456 16.8009 34.8302 14.0954C32.1234 11.3899 26.0633 13.0528 21.3049 17.809C16.5464 22.5652 14.8741 28.6225 17.5895 31.328C20.3049 34.0335 26.3564 32.3706 31.1148 27.6144Z" fill="var(--fill-0, #F6FAF3)"/>
</g>
</svg>
