<svg preserveAspectRatio="none" width="100%" height="100%" overflow="visible" style="display: block;" viewBox="0 0 62.1526 62.1234" fill="none" xmlns="http://www.w3.org/2000/svg">
<g id="Group">
<path id="Vector" opacity="0.75" d="M31.0763 62.1234C48.2393 62.1234 62.1526 48.2166 62.1526 31.0617C62.1526 13.9068 48.2393 0 31.0763 0C13.9133 0 1.03986e-06 13.9068 1.03986e-06 31.0617C1.03986e-06 48.2166 13.9133 62.1234 31.0763 62.1234Z" fill="var(--fill-0, #786B8A)"/>
<path id="Vector_2" d="M53.0496 53.0246C54.4892 51.5857 36.2227 31.4839 33.4383 28.7009C30.6539 25.9178 10.6892 7.5134 9.10308 9.0988C-3.03436 21.2305 -3.03436 40.8929 9.10308 53.0246C21.2405 65.1563 40.9121 65.1563 53.0496 53.0246Z" fill="var(--fill-0, #D32F2F)"/>
<path id="Vector_3" opacity="0.55" d="M23.4387 19.9812C28.1971 15.225 29.8695 9.16775 27.1541 6.46223C24.4387 3.75672 18.3872 5.41966 13.6288 10.1759C8.87033 14.932 7.19798 20.9893 9.91339 23.6948C12.6202 26.4003 18.6803 24.7374 23.4387 19.9812Z" fill="var(--fill-0, #F6FAF3)"/>
</g>
</svg>
