<svg preserveAspectRatio="none" width="100%" height="100%" overflow="visible" style="display: block;" viewBox="0 0 62.1526 62.1234" fill="none" xmlns="http://www.w3.org/2000/svg">
<g id="Group">
<path id="Vector" opacity="0.75" d="M31.0763 62.1234C48.2393 62.1234 62.1526 48.2166 62.1526 31.0617C62.1526 13.9068 48.2393 0 31.0763 0C13.9133 0 0 13.9068 0 31.0617C0 48.2166 13.9133 62.1234 31.0763 62.1234Z" fill="var(--fill-0, #786B8A)"/>
<path id="Vector_2" d="M53.0495 9.09879C51.6099 7.65987 31.4987 25.9178 28.7143 28.7009C25.93 31.4839 7.51691 51.4392 9.10305 53.0246C21.2405 65.1564 40.9121 65.1564 53.0495 53.0246C65.187 40.8929 65.187 21.2305 53.0495 9.09879Z" fill="var(--fill-0, #5894C4)"/>
<path id="Vector_3" opacity="0.55" d="M23.4387 19.9812C28.1971 15.225 29.8695 9.16774 27.1541 6.46223C24.4473 3.75671 18.3872 5.41965 13.6287 10.1758C8.87031 14.932 7.19797 20.9893 9.91338 23.6948C12.6202 26.4003 18.6803 24.7374 23.4387 19.9812Z" fill="var(--fill-0, #F6FAF3)"/>
</g>
</svg>
